# xmcd
#
# Track frame offsets:
#  150
#  14481
#  26883
#  40702
#  53584
#  64373
#  76910
#  86358
#  97495
#  108769
#  121832
#  134049
#  146019
#  155499
#  166570
#  177752
#  189077
#  200657
#  211826
#  225248
#  238767
#  251112
#  260397
#  270312
#
# Disc length: 3765 seconds
#
# Revision: 0
# Processed by: cddbd v1.5.1PL2 Copyright (c) Steve Scherf et al.
# Submitted via: Collectorz.com_Music_Collector 6.9
#
DISCID=420eb318
DTITLE=Betty LaVette/Carol Fran - Bluesoul Belles
DYEAR=1900
DGENRE=
TTITLE0=Betty LaVette - Let Me Down Easy
TTITLE1=Carol Fran - It's My Turn Now
TTITLE2=Carol Fran - Just A Letter
TTITLE3=Carol Fran - Any Day Love Walks In
TTITLE4=Carol Fran - C'mon Let's Make Up
TTITLE5=Carol Fran - So Close
TTITLE6=Carol Fran - Roll With The Punches
TTITLE7=Carol Fran - My Runaway Heart
TTITLE8=Carol Fran - You're My Pleasure
TTITLE9=Carol Fran - A Woman In Love
TTITLE10=Carol Fran - I Was Such A Fool
TTITLE11=Betty LaVette - Only Your Love Can Save Me
TTITLE12=Carol Fran - Out Of Sight, Out Of Mind
TTITLE13=Carol Fran - You Can't Stop Me
TTITLE14=Carol Fran - I Know
TTITLE15=Carol Fran - I'm Gonna Try
TTITLE16=Carol Fran - Crying In The Chapel
TTITLE17=Betty LaVette - Stand Up Like A Man
TTITLE18=Betty LaVette - What I Don't Know (Won't Hurt Me)
TTITLE19=Betty LaVette - Cry Me A River
TTITLE20=Betty LaVette - She Don't Love You Like I Love You
TTITLE21=Betty LaVette - I Feel Good All Over
TTITLE22=Betty LaVette - I'm Just A Fool For You
TTITLE23=Carol Fran - A World Without You
EXTD=
EXTT0=
EXTT1=
EXTT2=
EXTT3=
EXTT4=
EXTT5=
EXTT6=
EXTT7=
EXTT8=
EXTT9=
EXTT10=
EXTT11=
EXTT12=
EXTT13=
EXTT14=
EXTT15=
EXTT16=
EXTT17=
EXTT18=
EXTT19=
EXTT20=
EXTT21=
EXTT22=
EXTT23=
PLAYORDER=
